<?xml version="1.0" standalone="no"?>
<!DOCTYPE svg PUBLIC "-//W3C//DTD SVG 1.1//EN" "http://www.w3.org/Graphics/SVG/1.1/DTD/svg11.dtd" >
<svg xmlns="http://www.w3.org/2000/svg">
<metadata></metadata>
<defs>
<font id="postnllight" horiz-adv-x="1026" >
<font-face units-per-em="2048" ascent="1536" descent="-512" />
<missing-glyph horiz-adv-x="358" />
<glyph unicode="&#xfb01;" horiz-adv-x="995" d="M49 887v106h156v82q0 186 78 266q84 90 290 91q129 0 236 -27l-12 -100q-111 25 -222 24q-135 0 -190 -47q-57 -55 -57 -217v-72h514v-993h-125v887h-389v-887h-123v887h-156z" />
<glyph unicode="&#xfb02;" horiz-adv-x="991" d="M49 887v106h156v82q0 186 78 266q84 90 272 91q147 0 293 -39v-1393h-123v1311q-70 18 -174 18q-111 0 -166 -47q-57 -55 -57 -217v-72h227l-12 -106h-215v-887h-123v887h-156z" />
<glyph unicode="&#xfb03;" horiz-adv-x="1507" d="M49 887v106h156v82q0 186 78 266q84 90 254 91q35 0 92 -9l-13 -100q-37 6 -65 6q-111 0 -166 -47q-57 -55 -57 -217v-72h389v82q0 186 78 266q84 90 292 91q127 0 234 -27l-12 -100q-111 25 -219 24q-137 0 -191 -47q-57 -51 -57 -217v-72h512v-993h-123v887h-389v-887 h-125v887h-389v-887h-123v887h-156z" />
<glyph unicode="&#xfb04;" horiz-adv-x="1503" d="M49 887v106h156v82q0 186 78 266q84 90 254 91q35 0 92 -9l-13 -100q-37 6 -65 6q-111 0 -166 -47q-57 -55 -57 -217v-72h389v82q0 186 78 266q84 90 282 91q137 0 283 -39v-1393h-123v1311q-70 18 -174 18q-111 0 -166 -47q-57 -55 -57 -217v-72h227l-12 -106h-215v-887 h-123v887h-389v-887h-123v887h-156z" />
<glyph horiz-adv-x="2048" />
<glyph horiz-adv-x="2048" />
<glyph unicode="&#xd;" horiz-adv-x="358" />
<glyph unicode=" "  horiz-adv-x="358" />
<glyph unicode="&#x09;" horiz-adv-x="358" />
<glyph unicode="&#xa0;" horiz-adv-x="358" />
<glyph unicode="!" horiz-adv-x="501" d="M172 70v20q0 98 78 98t78 -98v-20q0 -102 -78 -102t-78 102zM184 866v514h129v-514l-20 -446h-86z" />
<glyph unicode="&#x22;" horiz-adv-x="612" d="M96 1004v438h150l-33 -438h-117zM381 1004v438h151l-32 -438h-119z" />
<glyph unicode="#" d="M47 393v109h174l66 375h-240v108h256l70 395h110l-69 -395h301l69 395h111l-70 -395h154v-108h-172l-66 -375h238v-109h-258l-68 -393h-108l67 393h-303l-67 -393h-109l68 393h-154zM330 502h303l65 375h-303z" />
<glyph unicode="$" d="M111 37l20 129q166 -72 315 -72h39v539q-186 57 -277 149t-91 250q0 162 101 258t267 117v213h103v-207q143 -2 280 -55l-24 -125q-150 49 -256 51v-534q74 -25 118 -41.5t97 -48t80.5 -68.5t47 -96.5t19.5 -135.5q0 -166 -95 -262t-267 -121v-208h-103v198h-28 q-170 0 -346 70zM262 1040q0 -102 58.5 -160.5t164.5 -97.5v494q-51 -10 -104 -35q-119 -60 -119 -201zM588 104q217 45 217 248q0 109 -54.5 163t-162.5 89v-500z" />
<glyph unicode="%" horiz-adv-x="1556" d="M104 995v29q0 389 250 389t250 -389v-29q0 -387 -250 -387t-250 387zM221 1009.5q0 -157.5 32 -227t101 -69.5q74 0 103.5 67.5t29.5 229t-29.5 229.5t-103.5 68q-70 0 -101.5 -70t-31.5 -227.5zM389 39l682 1399l119 -52l-684 -1396zM950 356v27q0 389 250 389t250 -389 v-27q0 -389 -250 -389t-250 389zM1067 369q0 -156 33 -225.5t100 -69.5q74 0 103.5 67.5t29.5 227.5q0 162 -29.5 230.5t-103.5 68.5q-68 0 -100.5 -70.5t-32.5 -228.5z" />
<glyph unicode="&#x26;" horiz-adv-x="1232" d="M92 268v15q0 209 256 362q-178 203 -178 408v16q0 53 16.5 108.5t52 110.5t103.5 90t158 35q135 0 216 -90t81 -236q0 -262 -277 -462q193 -207 305 -308q88 147 88 422h121q0 -281 -121 -493q143 -119 252 -148v-125q-147 14 -329 172q-164 -178 -396 -178 q-145 0 -246.5 79t-101.5 222zM229 287q0 -94 64.5 -147.5t165.5 -53.5q174 0 297 131q-172 156 -338 344q-188 -125 -189 -268v-6zM299 1059q0 -166 154 -350q215 160 215 366q0 98 -44 156.5t-132 58.5q-98 0 -145.5 -67.5t-47.5 -153.5v-10z" />
<glyph unicode="'" horiz-adv-x="325" d="M96 1004v438h150l-33 -438h-117z" />
<glyph unicode="(" horiz-adv-x="757" d="M203 604q0 516 397 920l59 -47q-313 -383 -313 -873q0 -487 311 -874l-55 -45q-399 415 -399 919z" />
<glyph unicode=")" horiz-adv-x="757" d="M98 1477l60 47q397 -403 397 -920q0 -504 -399 -919l-56 45q311 391 312 874q-1 486 -314 873z" />
<glyph unicode="*" horiz-adv-x="704" d="M45 1151l45 113l221 -113l-22 248h121l-23 -248l227 115l43 -113l-243 -76l172 -188l-101 -72l-133 215l-137 -213l-100 74l176 184z" />
<glyph unicode="+" d="M123 508v121h326v327h126v-327h326v-121h-326v-326h-126v326h-326z" />
<glyph unicode="," horiz-adv-x="405" d="M82 -279q61 131 94 236q-76 20 -76 121v28q0 115 101 115q102 0 102 -123q0 -150 -133 -413z" />
<glyph unicode="-" horiz-adv-x="575" d="M102 455v120h371v-120h-371z" />
<glyph unicode="." horiz-adv-x="405" d="M104 84v22q0 115 98.5 115t98.5 -115v-22q0 -117 -98.5 -117t-98.5 117z" />
<glyph unicode="/" horiz-adv-x="774" d="M57 -33l521 1446h139l-518 -1446h-142z" />
<glyph unicode="0" d="M102 659v60q0 369 96.5 531.5t313.5 162.5t314.5 -164t97.5 -530v-60q0 -367 -96.5 -529.5t-315.5 -162.5q-217 0 -313.5 162.5t-96.5 529.5zM246 690q0 -317 60.5 -454.5t205.5 -137.5t205.5 137.5t60.5 454.5q0 319 -60.5 456.5t-205.5 137.5t-205.5 -137.5 t-60.5 -456.5z" />
<glyph unicode="1" d="M131 1145l381 235h127v-1265h289v-115h-742v115h318v1126l-328 -205z" />
<glyph unicode="2" d="M115 127l172 178q102 109 167.5 184.5t142.5 177t115 193.5t38 172q0 123 -64 191q-70 68 -207 67q-158 0 -311 -65l-16 123q162 66 354 65q178 0 282.5 -92t104.5 -264q0 -168 -109.5 -342t-382.5 -453l-143 -147h619v-115h-748z" />
<glyph unicode="3" d="M117 33l22 121q141 -63 291 -64q322 0 322 291q0 139 -90 213q-96 80 -291 80h-19v106h19q154 0 248 75t94 206q0 229 -258 229q-141 0 -285 -59l-12 123q158 59 311 59q178 0 283.5 -87t105.5 -249q0 -254 -235 -342v-4q125 -27 199.5 -116t74.5 -236 q0 -201 -119 -306.5t-344 -105.5q-165 0 -317 66z" />
<glyph unicode="4" d="M35 375v114q268 426 622 891h125v-888h195v-117h-195v-375h-135v375h-612zM172 492h475v692q-229 -295 -475 -692z" />
<glyph unicode="5" d="M115 18l18 125q137 -53 309 -53q180 0 258 105q61 84 62 217q0 147 -67.5 220t-215.5 73q-123 0 -243 -50l-66 31l20 694h637v-112h-510l-16 -480q94 35 211 35q184 0 288.5 -104.5t104.5 -300.5q0 -217 -125 -334t-336 -117q-155 0 -329 51z" />
<glyph unicode="6" d="M82 584q0 156 30.5 294t96 263t186.5 198.5t285 73.5q74 0 117 -12l-15 -111q-45 8 -90 8q-180 0 -295 -118q-121 -131 -161 -416q123 94 311 94q180 0 285.5 -110.5t105.5 -305.5q0 -203 -112.5 -339t-303.5 -136q-440 1 -440 617zM231 651q-20 -168 15 -317 q59 -246 274 -246q129 0 201 92t72 248q0 150 -69 231.5t-204 81.5q-148 0 -289 -90z" />
<glyph unicode="7" d="M92 1262v118h807v-123l-567 -1257h-154l580 1262h-666z" />
<glyph unicode="8" d="M80 346q0 125 81 231.5t226 163.5q-115 66 -183.5 141.5t-68.5 194.5q0 152 113.5 244t279.5 92q168 0 271.5 -85t103.5 -238q0 -100 -71.5 -194.5t-200.5 -160.5q150 -78 232.5 -163t82.5 -216q0 -182 -126 -285.5t-308 -103.5q-184 0 -308 98.5t-124 280.5zM225 362 q0 -129 83 -200.5t208 -71.5q121 0 203 70.5t82 193.5q0 98 -67.5 170t-241.5 160q-267 -113 -267 -322zM281 1083q0 -96 65.5 -161.5t188.5 -135.5q225 119 225 297q0 104 -64.5 158.5t-171.5 54.5q-100 0 -171.5 -56.5t-71.5 -156.5z" />
<glyph unicode="9" d="M84 938q0 209 113.5 342t312.5 133q432 0 432 -616q0 -156 -30.5 -294t-96 -263t-186.5 -199t-285 -74q-74 0 -117 13l13 112q41 -10 92 -10q180 0 295 119q121 131 161 415q-125 -94 -311 -94q-178 0 -285.5 114t-107.5 302zM229 954q0 -150 69 -232.5t204 -82.5 q145 0 291 90q20 170 -17 318q-55 246 -274 245q-127 0 -200 -92t-73 -246z" />
<glyph unicode=":" horiz-adv-x="405" d="M104 84v22q0 115 98.5 115t98.5 -115v-22q0 -117 -98.5 -117t-98.5 117zM104 903v23q0 115 98.5 114.5t98.5 -114.5v-23q0 -117 -98.5 -117t-98.5 117z" />
<glyph unicode=";" horiz-adv-x="405" d="M82 -279q61 131 94 236q-76 20 -76 121v28q0 115 101 115q102 0 102 -123q0 -150 -133 -413zM104 903v23q0 115 98.5 114.5t98.5 -114.5v-23q0 -117 -98.5 -117t-98.5 117z" />
<glyph unicode="&#x3c;" d="M186 518v100l590 377l64 -102l-496 -320v-10l496 -321l-64 -101z" />
<glyph unicode="=" d="M123 303v123h778v-123h-778zM123 715v121h778v-121h-778z" />
<glyph unicode="&#x3e;" d="M186 242l498 321v10l-498 320l64 102l590 -377v-100l-590 -377z" />
<glyph unicode="?" horiz-adv-x="858" d="M82 1358q137 55 295 55q180 0 283.5 -94t103.5 -289q0 -178 -98.5 -281.5t-274.5 -103.5l-20 -264h-103l-16 373h63q168 0 244 65.5t76 214.5q0 262 -277 262q-137 0 -262 -51zM244 70v20q0 98 77.5 98t77.5 -98v-20q0 -102 -77.5 -102t-77.5 102z" />
<glyph unicode="@" horiz-adv-x="1546" d="M104 709v6q0 317 185.5 507.5t496.5 190.5q317 0 485.5 -179t168.5 -480q0 -401 -285 -402q-129 0 -192 92q-88 -92 -222 -92q-104 0 -168.5 52.5t-64.5 148.5q0 102 80 161.5t246 59.5h92v29q0 80 -40 111.5t-134 31.5q-92 0 -191 -35l-6 101q113 33 219 32 q129 0 195 -65q63 -57 63 -178v-191q0 -172 133 -172q160 0 160 310q0 260 -140.5 405t-393.5 145q-266 0 -412 -156.5t-146 -424.5q0 -303 163 -471t474 -168q172 0 304 33l8 -99q-143 -45 -324 -45q-346 0 -550 193t-204 549zM623 559q0 -121 133 -121q102 0 178 80 q-8 33 -8 76v96h-64q-239 0 -239 -131z" />
<glyph unicode="A" horiz-adv-x="1173" d="M51 0q170 580 467 1380h141q258 -672 463 -1380h-143q-39 145 -90 307h-600q-20 -61 -92 -307h-146zM330 440h516q-106 350 -256 764h-4z" />
<glyph unicode="B" horiz-adv-x="1153" d="M178 0v1380h314q86 0 146 -5t128 -25.5t107.5 -57.5t67.5 -103.5t28 -160.5q0 -231 -183 -295v-4q123 -18 202 -109.5t79 -230.5q0 -184 -111 -291q-70 -61 -168 -79.5t-247 -18.5h-363zM313 133h250q188 0 273.5 50t85.5 212q0 115 -70 178q-80 76 -272 76h-267v-516z M313 782h209q162 0 235.5 52.5t73.5 195.5q0 113 -69 170q-63 47 -219 47h-230v-465z" />
<glyph unicode="C" horiz-adv-x="1126" d="M106 688v10q0 348 148.5 531.5t439.5 183.5q193 0 363 -94l-37 -135q-164 92 -330 92q-217 0 -327.5 -148.5t-110.5 -433.5q0 -594 428 -594q186 0 338 78l35 -121q-158 -90 -377 -90q-301 0 -435.5 194.5t-134.5 526.5z" />
<glyph unicode="D" horiz-adv-x="1267" d="M178 0v1380h303q254 0 391 -55q289 -123 289 -620v-19q0 -410 -196 -575q-78 -63 -196 -87t-304 -24h-287zM313 133h211q141 0 227.5 24.5t145.5 84.5q119 121 119 454q0 346 -139 463q-104 88 -363 88h-201v-1114z" />
<glyph unicode="E" horiz-adv-x="1038" d="M178 0v1380h768l-10 -133h-623v-465h547v-133h-547v-516h623v-133h-758z" />
<glyph unicode="F" horiz-adv-x="1013" d="M178 0v1380h768l-10 -133h-623v-465h547v-133h-547v-649h-135z" />
<glyph unicode="G" horiz-adv-x="1228" d="M106 680v10q0 348 154 535.5t442 187.5q195 0 369 -94l-37 -135q-168 92 -336 92q-217 0 -331.5 -149.5t-114.5 -432.5q0 -287 108.5 -440.5t327.5 -153.5q133 0 246 41v424h-287v133h422v-647q-168 -84 -375 -84q-588 0 -588 713z" />
<glyph unicode="H" horiz-adv-x="1320" d="M178 0v1380h135v-598h695v598h135v-1380h-135v649h-695v-649h-135z" />
<glyph unicode="I" horiz-adv-x="503" d="M184 0v1380h135v-1380h-135z" />
<glyph unicode="J" horiz-adv-x="811" d="M53 -10l8 119q78 -18 136 -19q176 0 247 96q35 47 45.5 115t10.5 191v888h135v-886q0 -170 -21.5 -265.5t-91.5 -160.5q-104 -100 -305 -101q-86 0 -164 23z" />
<glyph unicode="K" horiz-adv-x="1087" d="M178 0v1380h135v-684q324 293 592 684h146q-229 -344 -488 -604l498 -776h-164l-438 676q-78 -78 -146 -135v-541h-135z" />
<glyph unicode="L" horiz-adv-x="921" d="M178 0v1380h135v-1247h543v-133h-678z" />
<glyph unicode="M" horiz-adv-x="1665" d="M156 0q25 639 82 1380h129q365 -778 467 -1028h4q96 231 471 1028h121q55 -721 79 -1380h-141q-2 160 -53 1110h-4l-441 -965h-82l-436 965h-4q-43 -731 -53 -1110h-139z" />
<glyph unicode="N" horiz-adv-x="1378" d="M178 0v1380h127l766 -1128h2v1128h127v-1380h-108l-785 1143h-2v-1143h-127z" />
<glyph unicode="O" horiz-adv-x="1267" d="M106 680v20q0 330 126 521.5t403 191.5q274 0 400 -191.5t126 -521.5v-20q0 -330 -126 -521.5t-400 -191.5q-276 0 -402.5 191.5t-126.5 521.5zM252 692q0 -295 89 -443.5t294 -148.5t293 147.5t88 442.5q0 293 -88 441.5t-293 148.5q-207 0 -295 -147.5t-88 -440.5z" />
<glyph unicode="P" horiz-adv-x="1105" d="M178 0v1380h314q311 0 428 -120q102 -106 102 -306q0 -223 -123 -336q-115 -102 -348 -102h-238v-516h-135zM313 649h215q182 0 265.5 60.5t83.5 244.5q0 158 -97 232q-82 61 -256 61h-211v-598z" />
<glyph unicode="Q" horiz-adv-x="1267" d="M106 680v20q0 330 126 521.5t403 191.5q274 0 400 -191.5t126 -521.5v-20q0 -543 -311 -672l211 -260l-113 -76l-221 301q-47 -6 -92 -6q-276 0 -402.5 191.5t-126.5 521.5zM252 692q0 -295 89 -443.5t294 -148.5t293 147.5t88 442.5q0 293 -88 441.5t-293 148.5 q-207 0 -295 -147.5t-88 -440.5z" />
<glyph unicode="R" horiz-adv-x="1130" d="M178 0v1380h307q311 0 428 -120q102 -106 103 -297q0 -215 -123 -328q-51 -41 -115 -66l254 -569h-145l-230 541q-51 -6 -112 -6h-232v-535h-135zM313 668h168q170 0 219 14q170 45 170 281q0 150 -96 223q-82 61 -256 61h-205v-579z" />
<glyph unicode="S" horiz-adv-x="976" d="M100 1040q0 180 122 276.5t310 96.5q154 0 279 -55l-23 -125q-135 51 -256 51q-125 0 -206.5 -59.5t-81.5 -184.5q0 -119 65.5 -178t192.5 -98l65 -21q166 -51 248 -129.5t82 -253.5q0 -190 -114.5 -291.5t-346.5 -101.5q-166 0 -332 70l19 129q166 -72 309 -72 q154 0 237 58.5t83 199.5q0 121 -60.5 173.5t-191.5 92.5l-60 19q-168 53 -254 147t-86 256z" />
<glyph unicode="T" horiz-adv-x="1071" d="M72 1247v133h929l-16 -133h-385v-1247h-135v1247h-393z" />
<glyph unicode="U" horiz-adv-x="1302" d="M172 498v882h135v-868q0 -213 77 -312.5t267.5 -99.5t267 99.5t76.5 312.5v868h135v-882q0 -268 -110.5 -399.5t-368.5 -131.5q-256 0 -367.5 132.5t-111.5 398.5z" />
<glyph unicode="V" horiz-adv-x="1179" d="M53 1380h146q154 -535 389 -1202h4q236 668 389 1202h145q-186 -635 -464 -1380h-146q-268 718 -463 1380z" />
<glyph unicode="W" horiz-adv-x="1816" d="M53 1380h146q111 -547 338 -1202h4q96 319 215 785q53 219 88 417h135q55 -276 94 -417q133 -506 221 -785h2q184 522 322 1202h143q-150 -692 -395 -1380h-145q-154 444 -308 1092h-4q-125 -551 -299 -1092h-147q-275 772 -410 1380z" />
<glyph unicode="X" horiz-adv-x="1093" d="M61 0l412 696l-393 684h166q180 -350 311 -573q176 297 322 573h153q-168 -307 -403 -684l413 -696h-180l-313 582l-318 -582h-170z" />
<glyph unicode="Y" horiz-adv-x="1048" d="M53 1380h150q145 -440 317 -780h6q186 369 320 780h149q-156 -467 -405 -927v-453h-131v455q-250 450 -406 925z" />
<glyph unicode="Z" horiz-adv-x="1060" d="M100 127l695 1120h-678v133h835v-125l-696 -1122h707v-133h-844z" />
<glyph unicode="[" horiz-adv-x="706" d="M203 -229v1628h342v-103h-219v-1423h219v-102h-342z" />
<glyph unicode="\" horiz-adv-x="774" d="M57 1413h140l520 -1446h-142z" />
<glyph unicode="]" horiz-adv-x="706" d="M164 -127h217v1423h-217v103h340v-1628h-340v102z" />
<glyph unicode="^" d="M76 659l381 637h112l381 -637l-110 -55l-328 561l-334 -561z" />
<glyph unicode="_" horiz-adv-x="1005" d="M6 -150h993v-118h-993v118z" />
<glyph unicode="`" horiz-adv-x="657" d="M98 1343l78 121l387 -254l-59 -96z" />
<glyph unicode="a" horiz-adv-x="991" d="M80 260q0 94 50 173t140 122q135 61 383 61h62v56q0 125 -58.5 184t-205.5 59q-133 0 -277 -63l-20 109q145 65 314 65h5q365 0 365 -346v-496q0 -63 12 -85.5t59 -22.5h9v-82q-25 -10 -68 -10q-115 0 -131 108q-137 -125 -330 -125q-133 0 -221 79t-88 214zM211 268 q0 -82 52 -135t153 -53q88 0 170 40t129 95v301h-70q-154 0 -254 -29q-180 -59 -180 -219z" />
<glyph unicode="b" horiz-adv-x="1060" d="M127 0q10 102 10 330v1083h123v-483q143 96 307 96q109 0 199 -52t139 -155q61 -127 62 -315v-6q0 -199 -72 -330q-111 -201 -354 -201q-156 0 -301 109l-13 -76h-100zM260 197q129 -111 270 -111q137 0 220 92q84 102 84 328q0 219 -84 317q-76 86 -218 86 q-143 0 -272 -102v-610z" />
<glyph unicode="c" horiz-adv-x="909" d="M96 487v7q0 254 116 393t337 139q162 0 287 -78l-21 -119q-104 78 -258 78q-330 0 -330 -411q0 -207 76 -310.5t244 -103.5q145 0 264 61l20 -108q-135 -68 -290 -68q-205 0 -312 107q-133 132 -133 413z" />
<glyph unicode="d" horiz-adv-x="1067" d="M96 471v8q0 295 148 439q112 108 283 108h3q150 0 277 -65v452h123v-1018q0 -197 10 -395h-104l-11 86q-145 -119 -313 -119q-182 0 -293 123q-123 135 -123 381zM227 494q0 -195 77 -301.5t233 -106.5q150 0 270 115v637q-115 71 -241 71h-3q-180 0 -258 -116.5 t-78 -298.5z" />
<glyph unicode="e" d="M96 489v5q0 139 41 254.5t140.5 196.5t244.5 81q340 0 398 -373q12 -72 12 -168v-43h-703q18 -360 330 -360q162 0 281 61l20 -108q-135 -68 -307 -68q-211 0 -317 109q-140 139 -140 413zM227 551h572q-16 356 -271 356q-125 0 -196 -76q-91 -90 -105 -280z" />
<glyph unicode="f" horiz-adv-x="585" d="M49 887v106h156v82q0 186 78 266q84 90 254 91q35 0 92 -9l-13 -100q-37 6 -65 6q-111 0 -166 -47q-57 -55 -57 -217v-72h237l-12 -106h-225v-887h-123v887h-156z" />
<glyph unicode="g" horiz-adv-x="1032" d="M115 682v8q0 168 105.5 252t279.5 84q162 0 266 -74q82 100 215 131v-139q-78 -10 -156 -53q59 -86 60 -201v-8q0 -174 -108.5 -255t-276.5 -81q-82 0 -138 16q-47 -92 -86 -200l248 -10q242 -10 328 -107q59 -61 59 -172q0 -139 -108.5 -217t-294.5 -78 q-180 0 -280.5 67.5t-100.5 188.5q0 55 27.5 113.5t70.5 95.5q-45 2 -67 25q-23 20 -23 49q0 43 43 127q41 72 94 149q-157 84 -157 289zM246 686q0 -119 59.5 -177t196.5 -58q135 0 193.5 58t58.5 177t-58.5 176.5t-193.5 57.5q-137 0 -196.5 -58.5t-59.5 -175.5zM248 -145 q0 -76 66.5 -122t201.5 -46q125 0 198.5 44t73.5 134q0 74 -51 110q-63 47 -252 56l-163 4q-74 -74 -74 -180z" />
<glyph unicode="h" horiz-adv-x="1077" d="M137 0v1413h123v-539q158 152 354 152q168 0 248 -82q84 -84 84 -285v-659h-123v637q0 158 -55 213q-47 53 -168 53q-82 0 -176 -44t-164 -120v-739h-123z" />
<glyph unicode="i" horiz-adv-x="430" d="M137 1309v16q0 100 78 100t78 -100v-16q0 -96 -78 -96t-78 96zM154 0v993h122v-993h-122z" />
<glyph unicode="j" horiz-adv-x="423" d="M-74 -420l6 107h19q104 0 153.5 66.5t49.5 242.5v997h122v-985q0 -215 -74.5 -322.5t-238.5 -107.5q-25 0 -37 2zM137 1309v16q0 100 78 100t78 -100v-16q0 -96 -78 -96t-78 96z" />
<glyph unicode="k" horiz-adv-x="888" d="M137 0v1413h123v-868q231 180 430 448h144q-160 -231 -340 -401l358 -592h-147l-306 506q-57 -47 -139 -107v-399h-123z" />
<glyph unicode="l" horiz-adv-x="409" d="M143 0v1413h123v-1413h-123z" />
<glyph unicode="m" horiz-adv-x="1640" d="M137 0v993h101l14 -119q137 152 330 152q188 0 262 -149q153 149 341 149h3q154 0 239 -82q82 -82 82 -285v-659h-123v637q0 147 -45 203q-49 63 -174 63q-160 0 -288 -141q4 -37 4 -127v-635h-123v623q0 53 -3 89t-14.5 75.5t-32 62t-57.5 38t-90 15.5q-78 0 -159.5 -43 t-143.5 -112v-748h-123z" />
<glyph unicode="n" horiz-adv-x="1077" d="M137 0v993h101l16 -125q158 158 360 158q168 0 248 -82q84 -84 84 -285v-659h-123v637q0 158 -55 213q-47 53 -168 53q-86 0 -177 -43t-163 -121v-739h-123z" />
<glyph unicode="o" horiz-adv-x="1062" d="M96 496v2q0 256 108.5 392t325.5 136q436 0 437 -526v-4q0 -258 -108.5 -393.5t-328.5 -135.5q-217 0 -325.5 136.5t-108.5 392.5zM227 496q0 -418 305 -418q303 0 304 418q0 419 -303 419h-1h-1q-304 0 -304 -419z" />
<glyph unicode="p" horiz-adv-x="1069" d="M137 -389v1382h90l15 -100q156 133 332 133t280 -119q119 -131 119 -385v-10q0 -295 -148 -438q-111 -106 -286 -107q-150 0 -279 68v-424h-123zM260 158q115 -74 246 -74q180 0 258 115.5t78 298.5q0 223 -90 323q-74 80 -201 80q-154 0 -291 -125v-618z" />
<glyph unicode="q" horiz-adv-x="1069" d="M96 489v11q0 219 105.5 372.5t320.5 153.5q162 0 305 -106l15 73h90v-1382h-123v450q-145 -94 -311 -94q-111 0 -202 51.5t-140 153.5q-60 122 -60 317zM227 485q0 -213 88 -315q76 -86 217 -86q145 0 277 102v619q-121 102 -258 102q-324 0 -324 -422z" />
<glyph unicode="r" horiz-adv-x="620" d="M137 0v993h101l14 -137q137 147 328 162v-139q-186 -10 -320 -140v-739h-123z" />
<glyph unicode="s" horiz-adv-x="821" d="M100 735q0 145 100.5 218t258.5 73q115 0 225 -37l-12 -108q-108 34 -198 34h-5q-244 0 -244 -167q0 -80 49.5 -118t153.5 -67l51 -16q147 -47 205.5 -106.5t58.5 -172.5q0 -301 -358 -301q-147 0 -281 58l11 108q137 -59 258 -59q119 0 182 39t63 143q0 68 -44 107.5 t-140 66.5l-57 16q-66 18 -103.5 35t-84 49.5t-68 82.5t-21.5 122z" />
<glyph unicode="t" horiz-adv-x="645" d="M39 887v106h156v279l122 18v-297h258l-6 -106h-252v-531q0 -176 41 -230t166 -54q18 0 56 4l10 -103q-53 -6 -96 -6q-166 0 -232.5 82t-66.5 254v584h-156z" />
<glyph unicode="u" horiz-adv-x="1048" d="M131 453v540h123v-538q0 -152 12.5 -216.5t57.5 -105.5q66 -55 200.5 -55t200.5 55q45 41 57.5 105.5t12.5 216.5v538h123v-540q0 -127 -12.5 -205t-50.5 -147.5t-120 -101.5t-211 -32t-210 32t-119.5 101.5t-51 147.5t-12.5 205z" />
<glyph unicode="v" horiz-adv-x="872" d="M31 993h129q102 -395 272 -852h4q195 535 275 852h131q-131 -469 -346 -993h-134q-74 182 -173 469.5t-158 523.5z" />
<glyph unicode="w" horiz-adv-x="1368" d="M31 993h129q49 -201 239 -821q150 489 230 821h110q88 -362 228 -821q201 651 241 821h129q-104 -412 -319 -993h-111q-176 600 -223 782q-74 -289 -225 -782h-109q-213 565 -319 993z" />
<glyph unicode="x" horiz-adv-x="860" d="M31 0l325 502l-303 491h154l227 -393q139 223 230 393h143q-137 -236 -305 -491l329 -502h-167l-238 401l-244 -401h-151z" />
<glyph unicode="y" horiz-adv-x="1024" d="M131 393v600h123v-587q0 -150 49 -209q55 -76 176 -76q152 0 285 92v780h123v-921q0 -244 -114 -369t-386 -125q-43 0 -106 8l8 101q61 -6 90 -6q219 0 305 94q80 92 80 260v57q-147 -92 -303 -92q-100 0 -181 47t-118 137q-31 72 -31 209z" />
<glyph unicode="z" horiz-adv-x="841" d="M72 104l503 783h-489v106h633v-110l-502 -777h522v-106h-647z" />
<glyph unicode="{" horiz-adv-x="698" d="M135 598v68q145 43 146 202v363q0 133 55 198.5t174 65.5h102v-94h-55q-92 0 -123 -36t-31 -155v-282q0 -152 -34.5 -213.5t-130.5 -81.5v-4q96 -18 130.5 -80t34.5 -213v-283q0 -119 31 -154.5t123 -35.5h55v-94h-102q-119 0 -174 65.5t-55 198.5v362q-1 156 -146 203z " />
<glyph unicode="|" horiz-adv-x="557" d="M217 -33v1465h123v-1465h-123z" />
<glyph unicode="}" horiz-adv-x="706" d="M96 -137h56q92 0 121.5 35.5t29.5 154.5v283q0 150 36 212t132 81v4q-96 20 -132 82.5t-36 212.5v282q0 119 -29.5 155t-121.5 36h-56v94h101q121 0 176 -65.5t55 -198.5v-363q0 -160 143 -202v-68q-143 -47 -143 -203v-362q0 -133 -55.5 -198.5t-175.5 -65.5h-101v94z " />
<glyph unicode="~" d="M39 498q111 190 258 190q68 0 195 -70l75 -40q102 -53 160 -54q53 0 89 29t79 98l88 -55q-98 -186 -254 -186q-90 0 -201 61l-82 43q-102 57 -145 57q-37 0 -71.5 -23.5t-55 -48t-51.5 -69.5z" />
<glyph unicode="&#xa1;" horiz-adv-x="501" d="M172 903v21q0 102 78 102t78 -102v-21q0 -98 -78 -98t-78 98zM184 127l23 446h86l20 -446v-514h-129v514z" />
<glyph unicode="&#xa2;" d="M143 678v6q0 227 94.5 363.5t274.5 162.5v203h104v-196q156 -6 269 -78l-23 -117q-100 70 -246 76v-826q135 6 242 62l21 -107q-119 -61 -263 -67v-193h-104v197q-152 12 -236 100q-133 133 -133 414zM274 688q0 -365 238 -407v809q-238 -52 -238 -402z" />
<glyph unicode="&#xa3;" d="M109 692v113h170v164q0 444 419 444q104 0 217 -33l-26 -129q-82 29 -182 29q-164 0 -228.5 -80t-64.5 -258v-137h331v-113h-331v-205q0 -125 -43 -228t-105 -142v-4h615v-113h-758l-6 129q74 47 118 133t44 184v246h-170z" />
<glyph unicode="&#xa4;" d="M39 207l149 149q-63 98 -63 223.5t65 221.5l-151 151l96 97l152 -150q94 70 227 70q129 0 225 -68l152 148l96 -97l-151 -149q68 -92 67 -223q0 -133 -67 -226l151 -147l-96 -98l-152 147q-96 -66 -225 -66q-133 0 -227 68l-152 -149zM260 579.5q0 -110.5 74 -182 t180.5 -71.5t180 71.5t73.5 182t-73.5 182.5t-180 72t-180.5 -72t-74 -182.5z" />
<glyph unicode="&#xa5;" d="M41 1380h149q154 -469 318 -790h6q178 350 320 790h149q-137 -410 -340 -802h203v-121h-268v-133h268v-123h-268v-201h-132v201h-262v123h262v133h-262v121h197q-215 415 -340 802z" />
<glyph unicode="&#xa6;" horiz-adv-x="557" d="M225 -33v533h107v-533h-107zM225 956v547h107v-547h-107z" />
<glyph unicode="&#xa7;" horiz-adv-x="946" d="M145 729q0 139 144 215q-131 80 -131 213q0 123 92 189.5t242 66.5q115 0 213 -39l-5 -98q-111 35 -200 35q-109 0 -163 -40t-54 -106q0 -53 37.5 -92t125.5 -76l140 -59q111 -47 163 -102.5t52 -155.5q0 -119 -123 -223q47 -25 78.5 -77t31.5 -116q0 -150 -92 -223.5 t-252 -73.5q-141 0 -282 56l6 106q164 -55 264 -55q117 0 175.5 43t58.5 119q0 70 -39 108.5t-164 87.5l-94 41q-224 90 -224 256zM274 743q0 -59 32 -92t106 -67l184 -84q88 90 88 166q0 55 -40 96t-136 80l-135 55q-99 -54 -99 -154z" />
<glyph unicode="&#xa8;" horiz-adv-x="657" d="M70 1303v10q0 49 27.5 76.5t68.5 27.5q45 0 71.5 -26.5t26.5 -77.5v-10q0 -100 -98 -101q-41 0 -68.5 26t-27.5 75zM389 1303v10q0 49 28.5 76.5t69.5 27.5q43 0 71 -26.5t28 -77.5v-10q0 -49 -28 -75t-71 -26q-41 0 -69.5 26t-28.5 75z" />
<glyph unicode="&#xa9;" horiz-adv-x="1529" d="M104 680q0 289 187.5 483.5t476.5 194.5q287 0 474.5 -194.5t187.5 -483.5q0 -291 -187.5 -485.5t-474.5 -194.5q-289 0 -476.5 194.5t-187.5 485.5zM223 680q0 -238 152.5 -402.5t392.5 -164.5t391.5 164.5t151.5 402.5q0 236 -151.5 398.5t-391.5 162.5 q-242 0 -393.5 -162.5t-151.5 -398.5zM471 672v4q0 186 81 280.5t224 94.5q109 0 191 -52l-17 -98q-84 49 -166 49q-199 0 -198 -272q0 -274 190 -275q88 0 172 39l19 -94q-102 -47 -187 -47q-309 0 -309 371z" />
<glyph unicode="&#xaa;" horiz-adv-x="714" d="M70 811q0 131 104.5 186.5t257.5 55.5h47v24q0 74 -33.5 102.5t-117.5 28.5q-98 0 -193 -45l-16 105q117 43 221 43q129 0 190.5 -53.5t61.5 -182.5v-313q0 -51 55 -51v-86q-25 -6 -57 -7q-82 0 -98 66q-86 -76 -207 -76q-102 0 -158.5 54.5t-56.5 148.5zM186 813 q0 -49 30 -78.5t85 -29.5q106 0 178 71v180h-61q-232 0 -232 -143z" />
<glyph unicode="&#xab;" horiz-adv-x="1075" d="M115 498l344 475l98 -64l-299 -411l297 -410l-96 -63zM514 498l344 475l98 -64l-299 -411l297 -410l-96 -63z" />
<glyph unicode="&#xac;" d="M123 508v121h778v-465h-125v344h-653z" />
<glyph unicode="&#xad;" horiz-adv-x="575" d="M102 455v120h371v-120h-371z" />
<glyph unicode="&#xae;" horiz-adv-x="1529" d="M104 680q0 289 187.5 483.5t476.5 194.5q287 0 474.5 -194.5t187.5 -483.5q0 -291 -187.5 -485.5t-474.5 -194.5q-289 0 -476.5 194.5t-187.5 485.5zM223 680q0 -238 152.5 -402.5t392.5 -164.5t391.5 164.5t151.5 402.5q0 236 -151.5 398.5t-391.5 162.5 q-242 0 -393.5 -162.5t-151.5 -398.5zM557 301v750h188q147 0 213 -55.5t66 -180.5q0 -168 -117 -217l133 -297h-122l-113 272q-23 -2 -70 -2h-57v-270h-121zM678 680h74q86 0 116.5 27.5t30.5 107.5q0 70 -32.5 97.5t-114.5 27.5h-74v-260z" />
<glyph unicode="&#xaf;" horiz-adv-x="657" d="M74 1217v116h508v-116h-508z" />
<glyph unicode="&#xb0;" horiz-adv-x="552" d="M45 1223q0 100 58.5 167.5t172.5 67.5q113 0 171.5 -67.5t58.5 -167.5q0 -117 -60.5 -176.5t-169 -59.5t-170 59.5t-61.5 176.5zM162 1222.5q0 -135.5 114.5 -135.5t114.5 135.5t-114.5 135.5t-114.5 -135.5z" />
<glyph unicode="&#xb1;" d="M123 0v115h776v-115h-776zM123 623v120h326v324h126v-324h324v-120h-324v-326h-126v326h-326z" />
<glyph unicode="&#xb2;" horiz-adv-x="638" d="M76 920l94 86q145 133 201.5 211.5t56.5 164.5q0 123 -137 123q-78 0 -187 -41l-26 99q113 49 225 49q117 0 179.5 -57.5t62.5 -157.5q0 -109 -75 -218.5t-249 -254.5h326v-99h-463z" />
<glyph unicode="&#xb3;" horiz-adv-x="638" d="M70 852l24 100q98 -41 180 -41q88 0 125 31q41 31 41 109q0 66 -37 94q-47 35 -149 35h-39v92h41q158 0 158 131q0 102 -127 102q-70 0 -170 -30l-19 98q98 39 199 39q233 0 233 -197q0 -131 -100 -180q59 -16 94 -63.5t35 -114.5q0 -250 -276 -250q-107 0 -213 45z" />
<glyph unicode="&#xb4;" horiz-adv-x="657" d="M96 1210l385 254l80 -121l-407 -229z" />
<glyph unicode="&#xb6;" d="M90 1087q0 154 93 240t251 86h486v-1620h-123v1520h-232v-1520h-125v981q-158 0 -254 88t-96 225z" />
<glyph unicode="&#xb7;" horiz-adv-x="405" d="M104 510v22q0 115 98.5 115t98.5 -115v-22q0 -117 -98.5 -117t-98.5 117z" />
<glyph unicode="&#xb8;" horiz-adv-x="657" d="M131 -451l25 99q68 -20 133 -21q109 0 108 78q0 45 -31.5 65.5t-111.5 20.5q-27 0 -43 -2l-10 12l61 236l109 -10l-33 -146q188 -12 188 -170q0 -90 -61.5 -139t-163.5 -49q-94 -1 -170 26z" />
<glyph unicode="&#xb9;" horiz-adv-x="638" d="M61 1456l232 137h98v-669h170v-99h-465v99h183v528l-181 -98z" />
<glyph unicode="&#xba;" horiz-adv-x="739" d="M68 954v11q0 166 76.5 256t226.5 90q147 0 224 -90.5t77 -255.5v-11q0 -166 -77 -256t-224 -90q-150 0 -226.5 90t-76.5 256zM184 960.5q0 -133.5 47.5 -190.5t139.5 -57q90 0 137 57t47 190.5t-47 189.5t-137 56q-92 0 -139.5 -56t-47.5 -189.5z" />
<glyph unicode="&#xbb;" horiz-adv-x="1075" d="M119 909l98 64l344 -475l-344 -473l-96 63l297 410zM518 909l98 64l345 -475l-345 -473l-96 63l297 410z" />
<glyph unicode="&#xbc;" horiz-adv-x="1640" d="M104 1257l232 138h98v-670h170v-98h-465v98h183v528l-181 -98zM438 39l682 1399l119 -52l-684 -1396zM920 180v84q135 205 378 492h93v-475h116v-101h-116v-194h-115v194h-356zM1042 281h234v301q-101 -119 -234 -301z" />
<glyph unicode="&#xbd;" horiz-adv-x="1640" d="M104 1257l232 138h98v-670h170v-98h-465v98h183v528l-181 -98zM438 39l682 1399l119 -52l-684 -1396zM1069 82l94 84q145 135 201.5 214t56.5 165q0 123 -137 123q-78 0 -186 -41l-27 98q109 47 225 47q119 0 180.5 -56.5t61.5 -156.5q0 -109 -74.5 -218.5t-249.5 -254.5 h326v-100h-463z" />
<glyph unicode="&#xbe;" horiz-adv-x="1640" d="M125 653l25 101q98 -41 180 -41q88 0 125 30q41 31 41 109q0 66 -37 94q-47 35 -150 35h-39v92h41q158 0 158 131q0 102 -127 103q-70 0 -170 -31l-18 98q98 39 198 39q233 0 234 -196q0 -131 -101 -181q59 -16 94 -63t35 -115q0 -250 -276 -250q-107 0 -213 45zM438 39 l682 1399l119 -52l-684 -1396zM920 180v84q135 205 378 492h93v-475h116v-101h-116v-194h-115v194h-356zM1042 281h234v301q-101 -119 -234 -301z" />
<glyph unicode="&#xbf;" horiz-adv-x="858" d="M94 -37q0 178 98.5 281.5t274.5 103.5l20 264h103l16 -372h-63q-168 0 -244 -65.5t-76 -215.5q0 -262 277 -262q137 0 262 51l14 -113q-137 -55 -295 -55q-180 0 -283.5 94t-103.5 289zM459 903v21q0 102 77.5 102t77.5 -102v-21q0 -98 -77.5 -98t-77.5 98z" />
<glyph unicode="&#xc0;" horiz-adv-x="1173" d="M51 0q170 580 467 1380h141q258 -672 463 -1380h-143q-39 145 -90 307h-600q-20 -61 -92 -307h-146zM309 1700l78 121l387 -254l-59 -94zM330 440h516q-106 350 -256 764h-4z" />
<glyph unicode="&#xc1;" horiz-adv-x="1173" d="M51 0q170 580 467 1380h141q258 -672 463 -1380h-143q-39 145 -90 307h-600q-20 -61 -92 -307h-146zM330 440h516q-106 350 -256 764h-4zM434 1567l385 254l80 -121l-407 -227z" />
<glyph unicode="&#xc2;" horiz-adv-x="1173" d="M51 0q170 580 467 1380h141q258 -672 463 -1380h-143q-39 145 -90 307h-600q-20 -61 -92 -307h-146zM299 1597l246 246h86l246 -246l-93 -73l-190 186h-12l-195 -186zM330 440h516q-106 350 -256 764h-4z" />
<glyph unicode="&#xc3;" horiz-adv-x="1173" d="M51 0q170 580 467 1380h141q258 -672 463 -1380h-143q-39 145 -90 307h-600q-20 -61 -92 -307h-146zM281 1645q84 166 192 165q57 0 127 -53l35 -24q47 -33 84 -33q57 0 100 86l74 -70q-57 -143 -180 -143q-57 0 -127 49l-31 20q-51 37 -80 37q-61 0 -113 -104zM330 440 h516q-106 350 -256 764h-4z" />
<glyph unicode="&#xc4;" horiz-adv-x="1173" d="M51 0q170 580 467 1380h141q258 -672 463 -1380h-143q-39 145 -90 307h-600q-20 -61 -92 -307h-146zM330 440h516q-106 350 -256 764h-4zM330 1661v10q0 49 27.5 76t68.5 27q98 0 98 -103v-10q0 -102 -98 -102q-41 0 -68.5 26.5t-27.5 75.5zM649 1661v10q0 49 29 76 t70 27q43 0 70.5 -27t27.5 -76v-10q0 -49 -27.5 -75.5t-70.5 -26.5q-41 0 -70 26.5t-29 75.5z" />
<glyph unicode="&#xc5;" horiz-adv-x="1173" d="M51 0q170 580 467 1380h141q258 -672 463 -1380h-143q-39 145 -90 307h-600q-20 -61 -92 -307h-146zM330 440h516q-106 350 -256 764h-4zM412 1698q0 76 50 127t126 51t126 -50t50 -128q0 -76 -50 -126t-126 -50t-126 50t-50 126zM506 1698q0 -37 22.5 -60.5t59.5 -23.5 t59.5 23.5t22.5 60.5q0 39 -21.5 62.5t-60.5 23.5t-60.5 -23.5t-21.5 -62.5z" />
<glyph unicode="&#xc6;" horiz-adv-x="1619" d="M49 0q117 279 328 710t342 670h809l-10 -133h-582v-465h508v-133h-508v-516h582v-133h-717v307h-463q-66 -139 -133 -307h-156zM397 440h404v807h-21q-207 -399 -383 -807z" />
<glyph unicode="&#xc7;" horiz-adv-x="1126" d="M106 688v10q0 348 148.5 531.5t439.5 183.5q193 0 363 -94l-37 -135q-164 92 -330 92q-217 0 -327.5 -148.5t-110.5 -433.5q0 -594 428 -594q186 0 338 78l35 -121q-152 -86 -371 -90l-18 -86q188 -12 188 -170q0 -90 -61.5 -139t-163.5 -49q-94 0 -170 26l24 99 q68 -20 133 -21q109 0 109 78q0 45 -32 65.5t-111 20.5q-27 0 -43 -2l-11 12l45 174q-465 64 -465 713z" />
<glyph unicode="&#xc8;" horiz-adv-x="1038" d="M178 0v1380h768l-10 -133h-623v-465h547v-133h-547v-516h623v-133h-758zM307 1700l78 121l387 -254l-59 -94z" />
<glyph unicode="&#xc9;" horiz-adv-x="1038" d="M178 0v1380h768l-10 -133h-623v-465h547v-133h-547v-516h623v-133h-758zM406 1567l385 254l79 -121l-407 -227z" />
<glyph unicode="&#xca;" horiz-adv-x="1038" d="M178 0v1380h768l-10 -133h-623v-465h547v-133h-547v-516h623v-133h-758zM295 1597l246 246h86l245 -246l-92 -73l-190 186h-12l-195 -186z" />
<glyph unicode="&#xcb;" horiz-adv-x="1038" d="M178 0v1380h768l-10 -133h-623v-465h547v-133h-547v-516h623v-133h-758zM305 1661v10q0 49 27.5 76t68.5 27q98 0 99 -103v-10q0 -102 -99 -102q-41 0 -68.5 26.5t-27.5 75.5zM625 1661v10q0 49 28.5 76t69.5 27q43 0 70.5 -27t27.5 -76v-10q0 -49 -27.5 -75.5 t-70.5 -26.5q-41 0 -69.5 26.5t-28.5 75.5z" />
<glyph unicode="&#xcc;" horiz-adv-x="503" d="M-23 1700l78 121l387 -254l-59 -94zM184 0v1380h135v-1380h-135z" />
<glyph unicode="&#xcd;" horiz-adv-x="503" d="M98 1567l385 254l80 -121l-407 -227zM184 0v1380h135v-1380h-135z" />
<glyph unicode="&#xce;" horiz-adv-x="503" d="M-37 1597l246 246h86l246 -246l-92 -73l-191 186h-12l-195 -186zM184 0v1380h135v-1380h-135z" />
<glyph unicode="&#xcf;" horiz-adv-x="503" d="M-6 1661v10q0 49 27.5 76t68.5 27q98 0 98 -103v-10q0 -102 -98 -102q-41 0 -68.5 26.5t-27.5 75.5zM184 0v1380h135v-1380h-135zM313 1661v10q0 49 29 76t70 27q43 0 70.5 -27t27.5 -76v-10q0 -49 -27.5 -75.5t-70.5 -26.5q-41 0 -70 26.5t-29 75.5z" />
<glyph unicode="&#xd0;" horiz-adv-x="1267" d="M37 633v133h141v614h303q254 0 391 -55q289 -123 289 -620v-19q0 -410 -196 -575q-78 -63 -196 -87t-304 -24h-287v633h-141zM313 133h211q141 0 227.5 24.5t145.5 84.5q119 121 119 454q0 346 -139 463q-104 88 -363 88h-201v-481h299v-133h-299v-500z" />
<glyph unicode="&#xd1;" horiz-adv-x="1378" d="M178 0v1380h127l766 -1128h2v1128h127v-1380h-108l-785 1143h-2v-1143h-127zM387 1645q84 166 193 165q57 0 127 -53l34 -24q47 -33 84 -33q57 0 101 86l73 -70q-57 -143 -180 -143q-57 0 -127 49l-30 20q-51 37 -80 37q-61 0 -113 -104z" />
<glyph unicode="&#xd2;" horiz-adv-x="1267" d="M106 680v20q0 330 126 521.5t403 191.5q274 0 400 -191.5t126 -521.5v-20q0 -330 -126 -521.5t-400 -191.5q-276 0 -402.5 191.5t-126.5 521.5zM252 692q0 -295 89 -443.5t294 -148.5t293 147.5t88 442.5q0 293 -88 441.5t-293 148.5q-207 0 -295 -147.5t-88 -440.5z M393 1700l78 121l387 -254l-59 -94z" />
<glyph unicode="&#xd3;" horiz-adv-x="1267" d="M106 680v20q0 330 126 521.5t403 191.5q274 0 400 -191.5t126 -521.5v-20q0 -330 -126 -521.5t-400 -191.5q-276 0 -402.5 191.5t-126.5 521.5zM252 692q0 -295 89 -443.5t294 -148.5t293 147.5t88 442.5q0 293 -88 441.5t-293 148.5q-207 0 -295 -147.5t-88 -440.5z M463 1567l385 254l80 -121l-408 -227z" />
<glyph unicode="&#xd4;" horiz-adv-x="1267" d="M106 680v20q0 330 126 521.5t403 191.5q274 0 400 -191.5t126 -521.5v-20q0 -330 -126 -521.5t-400 -191.5q-276 0 -402.5 191.5t-126.5 521.5zM252 692q0 -295 89 -443.5t294 -148.5t293 147.5t88 442.5q0 293 -88 441.5t-293 148.5q-207 0 -295 -147.5t-88 -440.5z M350 1597l246 246h86l246 -246l-92 -73l-191 186h-12l-195 -186z" />
<glyph unicode="&#xd5;" horiz-adv-x="1267" d="M106 680v20q0 330 126 521.5t403 191.5q274 0 400 -191.5t126 -521.5v-20q0 -330 -126 -521.5t-400 -191.5q-276 0 -402.5 191.5t-126.5 521.5zM252 692q0 -295 89 -443.5t294 -148.5t293 147.5t88 442.5q0 293 -88 441.5t-293 148.5q-207 0 -295 -147.5t-88 -440.5z M336 1645q82 166 192 165q57 0 127 -53l35 -24q47 -33 84 -33q57 0 100 86l74 -70q-57 -143 -180 -143q-57 0 -127 49l-31 20q-51 37 -80 37q-61 0 -112 -104z" />
<glyph unicode="&#xd6;" horiz-adv-x="1267" d="M106 680v20q0 330 126 521.5t403 191.5q274 0 400 -191.5t126 -521.5v-20q0 -330 -126 -521.5t-400 -191.5q-276 0 -402.5 191.5t-126.5 521.5zM252 692q0 -295 89 -443.5t294 -148.5t293 147.5t88 442.5q0 293 -88 441.5t-293 148.5q-207 0 -295 -147.5t-88 -440.5z M379 1661v10q0 49 27.5 76t68.5 27q98 0 98 -103v-10q0 -102 -98 -102q-41 0 -68.5 26.5t-27.5 75.5zM698 1661v10q0 49 29 76t70 27q43 0 70.5 -27t27.5 -76v-10q0 -49 -27.5 -75.5t-70.5 -26.5q-41 0 -70 26.5t-29 75.5z" />
<glyph unicode="&#xd7;" d="M133 877l90 84l303 -304l305 304l84 -84l-301 -308l299 -297l-84 -90l-303 303l-303 -303l-86 86l303 303z" />
<glyph unicode="&#xd8;" horiz-adv-x="1267" d="M106 680v20q0 330 126 521.5t403 191.5q137 0 239 -53l93 209l104 -47l-100 -230q190 -178 190 -592v-20q0 -330 -126 -521.5t-400 -191.5q-127 0 -227 45l-95 -217l-104 55l98 226q-201 174 -201 604zM252 692q0 -344 117 -481l450 1024q-80 45 -184 45 q-207 0 -295 -147.5t-88 -440.5zM463 135q74 -35 172 -35q205 0 293 147.5t88 442.5q0 324 -107 467z" />
<glyph unicode="&#xd9;" horiz-adv-x="1302" d="M172 498v882h135v-868q0 -213 77 -312.5t267.5 -99.5t267 99.5t76.5 312.5v868h135v-882q0 -268 -110.5 -399.5t-368.5 -131.5q-256 0 -367.5 132.5t-111.5 398.5zM395 1700l78 121l387 -254l-59 -94z" />
<glyph unicode="&#xda;" horiz-adv-x="1302" d="M172 498v882h135v-868q0 -213 77 -312.5t267.5 -99.5t267 99.5t76.5 312.5v868h135v-882q0 -268 -110.5 -399.5t-368.5 -131.5q-256 0 -367.5 132.5t-111.5 398.5zM463 1567l385 254l80 -121l-408 -227z" />
<glyph unicode="&#xdb;" horiz-adv-x="1302" d="M172 498v882h135v-868q0 -213 77 -312.5t267.5 -99.5t267 99.5t76.5 312.5v868h135v-882q0 -268 -110.5 -399.5t-368.5 -131.5q-256 0 -367.5 132.5t-111.5 398.5zM373 1597l245 246h87l245 -246l-92 -73l-190 186h-13l-194 -186z" />
<glyph unicode="&#xdc;" horiz-adv-x="1302" d="M172 498v882h135v-868q0 -213 77 -312.5t267.5 -99.5t267 99.5t76.5 312.5v868h135v-882q0 -268 -110.5 -399.5t-368.5 -131.5q-256 0 -367.5 132.5t-111.5 398.5zM395 1661v10q0 49 28 76t69 27q98 0 98 -103v-10q0 -102 -98 -102q-41 0 -69 26.5t-28 75.5zM715 1661v10 q0 49 28.5 76t69.5 27q43 0 70.5 -27t27.5 -76v-10q0 -49 -27.5 -75.5t-70.5 -26.5q-41 0 -69.5 26.5t-28.5 75.5z" />
<glyph unicode="&#xdd;" horiz-adv-x="1048" d="M53 1380h150q145 -440 317 -780h6q186 369 320 780h149q-156 -467 -405 -927v-453h-131v455q-250 450 -406 925zM377 1567l385 254l80 -121l-408 -227z" />
<glyph unicode="&#xde;" horiz-adv-x="1079" d="M178 0v1380h135v-237h152q311 0 430 -121q100 -104 100 -307q0 -225 -123 -336q-113 -100 -348 -100h-211v-279h-135zM313 412h189q182 0 265 59t83 244q0 158 -94 233q-82 61 -256 62h-187v-598z" />
<glyph unicode="&#xdf;" horiz-adv-x="1019" d="M137 -297v1681q152 47 303 48q180 0 295 -87.5t115 -259.5q0 -106 -50 -188t-143 -115v-4q139 -31 210 -129t71 -219q0 -201 -134 -315.5t-329 -114.5q-29 0 -74 4l5 98q25 -2 43 -2q162 0 261 84t99 244q0 139 -92 216t-242 77v100q252 16 252 256q0 123 -80 183.5 t-207 60.5q-100 0 -180 -27v-1591h-123z" />
<glyph unicode="&#xe0;" horiz-adv-x="991" d="M80 260q0 94 50 173t140 122q135 61 383 61h62v56q0 125 -58.5 184t-205.5 59q-133 0 -277 -63l-20 109q147 66 319 65q365 0 365 -346v-496q0 -63 12 -85.5t59 -22.5h9v-82q-25 -10 -68 -10q-115 0 -131 108q-137 -125 -330 -125q-133 0 -221 79t-88 214zM211 268 q0 -82 52 -135t153 -53q88 0 170 40t129 95v301h-70q-154 0 -254 -29q-180 -59 -180 -219zM256 1343l78 121l387 -254l-59 -96z" />
<glyph unicode="&#xe1;" horiz-adv-x="991" d="M80 260q0 94 50 173t140 122q135 61 383 61h62v56q0 125 -58.5 184t-205.5 59q-133 0 -277 -63l-20 109q147 66 319 65q365 0 365 -346v-496q0 -63 12 -85.5t59 -22.5h9v-82q-25 -10 -68 -10q-115 0 -131 108q-137 -125 -330 -125q-133 0 -221 79t-88 214zM211 268 q0 -82 52 -135t153 -53q88 0 170 40t129 95v301h-70q-154 0 -254 -29q-180 -59 -180 -219zM295 1210l385 254l80 -121l-408 -229z" />
<glyph unicode="&#xe2;" horiz-adv-x="991" d="M80 260q0 94 50 173t140 122q135 61 383 61h62v56q0 125 -58.5 184t-205.5 59q-133 0 -277 -63l-20 109q147 66 319 65q365 0 365 -346v-496q0 -63 12 -85.5t59 -22.5h9v-82q-25 -10 -68 -10q-115 0 -131 108q-137 -125 -330 -125q-133 0 -221 79t-88 214zM209 1239 l246 248h86l245 -248l-92 -74l-190 189h-12l-195 -189zM211 268q0 -82 52 -135t153 -53q88 0 170 40t129 95v301h-70q-154 0 -254 -29q-180 -59 -180 -219z" />
<glyph unicode="&#xe3;" horiz-adv-x="991" d="M80 260q0 94 50 173t140 122q135 61 383 61h62v56q0 125 -58.5 184t-205.5 59q-133 0 -277 -63l-20 109q147 66 319 65q365 0 365 -346v-496q0 -63 12 -85.5t59 -22.5h9v-82q-25 -10 -68 -10q-115 0 -131 108q-137 -125 -330 -125q-133 0 -221 79t-88 214zM193 1286 q82 164 192 164q55 0 127 -51l35 -27q49 -31 84 -31q57 0 100 84l74 -67q-57 -143 -180 -144q-59 0 -127 48l-31 22q-53 35 -80 35q-63 0 -113 -102zM211 268q0 -82 52 -135t153 -53q88 0 170 40t129 95v301h-70q-154 0 -254 -29q-180 -59 -180 -219z" />
<glyph unicode="&#xe4;" horiz-adv-x="991" d="M80 260q0 94 50 173t140 122q135 61 383 61h62v56q0 125 -58.5 184t-205.5 59q-133 0 -277 -63l-20 109q147 66 319 65q365 0 365 -346v-496q0 -63 12 -85.5t59 -22.5h9v-82q-25 -10 -68 -10q-115 0 -131 108q-137 -125 -330 -125q-133 0 -221 79t-88 214zM211 268 q0 -82 52 -135t153 -53q88 0 170 40t129 95v301h-70q-154 0 -254 -29q-180 -59 -180 -219zM233 1303v10q0 49 28 76.5t69 27.5q45 0 71.5 -26.5t26.5 -77.5v-10q0 -100 -98 -101q-41 0 -69 26t-28 75zM553 1303v10q0 49 28.5 76.5t69.5 27.5q43 0 71 -26.5t28 -77.5v-10 q0 -49 -28 -75t-71 -26q-41 0 -69.5 26t-28.5 75z" />
<glyph unicode="&#xe5;" horiz-adv-x="991" d="M80 260q0 94 50 173t140 122q135 61 383 61h62v56q0 125 -58.5 184t-205.5 59q-133 0 -277 -63l-20 109q147 66 319 65q365 0 365 -346v-496q0 -63 12 -85.5t59 -22.5h9v-82q-25 -10 -68 -10q-115 0 -131 108q-137 -125 -330 -125q-133 0 -221 79t-88 214zM211 268 q0 -82 52 -135t153 -53q88 0 170 40t129 95v301h-70q-154 0 -254 -29q-180 -59 -180 -219zM319 1341.5q0 75.5 50.5 126t126 50.5t126 -50.5t50.5 -126.5q0 -78 -50.5 -128t-126 -50t-126 51.5t-50.5 127zM414 1341q0 -39 21.5 -62.5t60.5 -23.5t60.5 24t21.5 62 q0 37 -23 60.5t-59.5 23.5t-59 -23.5t-22.5 -60.5z" />
<glyph unicode="&#xe6;" horiz-adv-x="1650" d="M80 260q0 94 49 170t141 117q135 61 389 61h62v64q0 125 -58.5 184t-205.5 59q-133 0 -277 -63l-20 109q147 66 319 65q256 0 336 -178q113 178 334 178q336 0 397 -373q10 -59 10 -147v-41h-706q10 -180 95 -281.5t239 -101.5q164 0 282 61l21 -108q-135 -68 -309 -68 q-209 0 -318 109q-31 31 -53 67q-152 -176 -401 -176q-143 0 -234.5 78t-91.5 215zM217 268q0 -82 52.5 -135t152.5 -53t189 45t149 121q-39 109 -39 252v10h-70q-154 0 -254 -29q-180 -59 -180 -211zM852 571h571q-12 336 -268 336q-125 0 -197 -76q-94 -92 -106 -260z" />
<glyph unicode="&#xe7;" horiz-adv-x="909" d="M96 487v7q0 254 116 393t337 139q162 0 287 -78l-21 -119q-104 78 -258 78q-330 0 -330 -411q0 -207 76 -310.5t244 -103.5q145 0 264 61l20 -108q-127 -61 -268 -68l-20 -86q188 -12 188 -170q0 -88 -62.5 -138t-164.5 -50q-92 0 -168 26l24 99q68 -20 134 -21 q109 0 108 78q0 49 -41 69.5t-145 14.5l-10 12l43 172q-137 18 -220 101q-133 132 -133 413z" />
<glyph unicode="&#xe8;" d="M96 489v5q0 139 41 254.5t140.5 196.5t244.5 81q340 0 398 -373q12 -72 12 -168v-43h-703q18 -360 330 -360q162 0 281 61l20 -108q-135 -68 -307 -68q-211 0 -317 109q-140 139 -140 413zM227 551h572q-16 356 -271 356q-125 0 -196 -76q-91 -90 -105 -280zM287 1343 l78 121l387 -254l-60 -96z" />
<glyph unicode="&#xe9;" d="M96 489v5q0 139 41 254.5t140.5 196.5t244.5 81q340 0 398 -373q12 -72 12 -168v-43h-703q18 -360 330 -360q162 0 281 61l20 -108q-135 -68 -307 -68q-211 0 -317 109q-140 139 -140 413zM227 551h572q-16 356 -271 356q-125 0 -196 -76q-91 -90 -105 -280zM338 1210 l385 254l80 -121l-408 -229z" />
<glyph unicode="&#xea;" d="M96 489v5q0 139 41 254.5t140.5 196.5t244.5 81q340 0 398 -373q12 -72 12 -168v-43h-703q18 -360 330 -360q162 0 281 61l20 -108q-135 -68 -307 -68q-211 0 -317 109q-140 139 -140 413zM227 551h572q-16 356 -271 356q-125 0 -196 -76q-91 -90 -105 -280zM248 1239 l246 248h86l245 -248l-92 -74l-190 189h-13l-194 -189z" />
<glyph unicode="&#xeb;" d="M96 489v5q0 139 41 254.5t140.5 196.5t244.5 81q340 0 398 -373q12 -72 12 -168v-43h-703q18 -360 330 -360q162 0 281 61l20 -108q-135 -68 -307 -68q-211 0 -317 109q-140 139 -140 413zM227 551h572q-16 356 -271 356q-125 0 -196 -76q-91 -90 -105 -280zM276 1303v10 q0 49 28 76.5t69 27.5q45 0 71.5 -26.5t26.5 -77.5v-10q0 -100 -98 -101q-41 0 -69 26t-28 75zM596 1303v10q0 49 28.5 76.5t69.5 27.5q43 0 71 -26.5t28 -77.5v-10q0 -49 -28 -75t-71 -26q-41 0 -69.5 26t-28.5 75z" />
<glyph unicode="&#xec;" horiz-adv-x="430" d="M-53 1343l78 121l387 -254l-60 -96zM154 0v993h122v-993h-122z" />
<glyph unicode="&#xed;" horiz-adv-x="430" d="M47 1210l385 254l80 -121l-408 -229zM154 0v993h122v-993h-122z" />
<glyph unicode="&#xee;" horiz-adv-x="430" d="M-74 1239l246 248h86l246 -248l-92 -74l-191 189h-12l-195 -189zM154 0v993h122v-993h-122z" />
<glyph unicode="&#xef;" horiz-adv-x="430" d="M-43 1303v10q0 49 27.5 76.5t68.5 27.5q45 0 72 -26.5t27 -77.5v-10q0 -100 -99 -101q-41 0 -68.5 26t-27.5 75zM154 0v993h122v-993h-122zM276 1303v10q0 49 29 76.5t70 27.5q43 0 70.5 -26.5t27.5 -77.5v-10q0 -49 -27.5 -75t-70.5 -26q-41 0 -70 26t-29 75z" />
<glyph unicode="&#xf0;" horiz-adv-x="1013" d="M96 496q0 233 97.5 373.5t295.5 140.5q129 0 252 -95q-55 213 -225 330l-166 -129l-57 66l139 110q-90 47 -190 72l90 63q96 -27 184 -69l137 110l60 -67l-113 -88q305 -199 305 -735q0 -301 -96 -456t-311 -155q-184 0 -293 141.5t-109 387.5zM225 500q0 -199 75 -308.5 t206 -109.5q141 0 205.5 113.5t64.5 369.5q0 137 -14 238q-123 98 -256 98q-281 0 -281 -401z" />
<glyph unicode="&#xf1;" horiz-adv-x="1077" d="M137 0v993h101l16 -125q158 158 360 158q168 0 248 -82q84 -84 84 -285v-659h-123v637q0 158 -55 213q-47 53 -168 53q-86 0 -177 -43t-163 -121v-739h-123zM254 1286q82 164 192 164q55 0 127 -51l35 -27q49 -31 84 -31q57 0 101 84l73 -67q-57 -143 -180 -144 q-59 0 -127 48l-31 22q-53 35 -79 35q-63 0 -113 -102z" />
<glyph unicode="&#xf2;" horiz-adv-x="1062" d="M96 496v2q0 256 108.5 392t325.5 136q436 0 437 -526v-4q0 -258 -108.5 -393.5t-328.5 -135.5q-217 0 -325.5 136.5t-108.5 392.5zM227 496q0 -418 305 -418q303 0 304 418q0 420 -304 419q-305 1 -305 -419zM291 1343l78 121l387 -254l-60 -96z" />
<glyph unicode="&#xf3;" horiz-adv-x="1062" d="M96 496v2q0 256 108.5 392t325.5 136q436 0 437 -526v-4q0 -258 -108.5 -393.5t-328.5 -135.5q-217 0 -325.5 136.5t-108.5 392.5zM227 496q0 -418 305 -418q303 0 304 418q0 420 -304 419q-305 1 -305 -419zM346 1210l385 254l80 -121l-408 -229z" />
<glyph unicode="&#xf4;" horiz-adv-x="1062" d="M96 496v2q0 256 108.5 392t325.5 136q436 0 437 -526v-4q0 -258 -108.5 -393.5t-328.5 -135.5q-217 0 -325.5 136.5t-108.5 392.5zM227 496q0 -418 305 -418q303 0 304 418q0 420 -304 419q-305 1 -305 -419zM246 1239l246 248h86l245 -248l-92 -74l-190 189h-13 l-194 -189z" />
<glyph unicode="&#xf5;" horiz-adv-x="1062" d="M96 496v2q0 256 108.5 392t325.5 136q436 0 437 -526v-4q0 -258 -108.5 -393.5t-328.5 -135.5q-217 0 -325.5 136.5t-108.5 392.5zM227 496q0 -418 305 -418q303 0 304 418q0 420 -304 419q-305 1 -305 -419zM229 1286q82 164 193 164q55 0 127 -51l35 -27q49 -31 84 -31 q57 0 100 84l74 -67q-57 -143 -180 -144q-59 0 -127 48l-31 22q-53 35 -80 35q-63 0 -113 -102z" />
<glyph unicode="&#xf6;" horiz-adv-x="1062" d="M96 496v2q0 256 108.5 392t325.5 136q436 0 437 -526v-4q0 -258 -108.5 -393.5t-328.5 -135.5q-217 0 -325.5 136.5t-108.5 392.5zM227 496q0 -418 305 -418q303 0 304 418q0 420 -304 419q-305 1 -305 -419zM281 1303v10q0 49 27.5 76.5t68.5 27.5q45 0 71.5 -26.5 t26.5 -77.5v-10q0 -100 -98 -101q-41 0 -68.5 26t-27.5 75zM600 1303v10q0 49 28.5 76.5t69.5 27.5q43 0 71 -26.5t28 -77.5v-10q0 -49 -28 -75t-71 -26q-41 0 -69.5 26t-28.5 75z" />
<glyph unicode="&#xf7;" d="M123 508v121h778v-121h-778zM422 231v25q0 109 92 109q94 0 94 -109v-25q0 -111 -94 -110q-92 -1 -92 110zM422 885v22q0 111 92 111q94 0 94 -111v-22q0 -113 -94 -113q-92 0 -92 113z" />
<glyph unicode="&#xf8;" horiz-adv-x="1062" d="M96 496v2q0 256 108.5 392t325.5 136q96 0 177 -29l77 170l97 -41l-82 -178q168 -129 168 -448v-4q0 -258 -108.5 -393.5t-328.5 -135.5q-98 0 -165 27l-76 -166l-96 43l77 168q-174 123 -174 457zM227 496q0 -240 95 -340l337 737q-57 23 -127 22q-305 1 -305 -419z M412 98q47 -20 120 -20q303 0 304 418q0 236 -91 333z" />
<glyph unicode="&#xf9;" horiz-adv-x="1048" d="M131 453v540h123v-538q0 -152 12.5 -216.5t57.5 -105.5q66 -55 200.5 -55t200.5 55q45 41 57.5 105.5t12.5 216.5v538h123v-540q0 -127 -12.5 -205t-50.5 -147.5t-120 -101.5t-211 -32t-210 32t-119.5 101.5t-51 147.5t-12.5 205zM262 1343l78 121l387 -254l-59 -96z" />
<glyph unicode="&#xfa;" horiz-adv-x="1048" d="M131 453v540h123v-538q0 -152 12.5 -216.5t57.5 -105.5q66 -55 200.5 -55t200.5 55q45 41 57.5 105.5t12.5 216.5v538h123v-540q0 -127 -12.5 -205t-50.5 -147.5t-120 -101.5t-211 -32t-210 32t-119.5 101.5t-51 147.5t-12.5 205zM348 1210l385 254l80 -121l-407 -229z " />
<glyph unicode="&#xfb;" horiz-adv-x="1048" d="M131 453v540h123v-538q0 -152 12.5 -216.5t57.5 -105.5q66 -55 200.5 -55t200.5 55q45 41 57.5 105.5t12.5 216.5v538h123v-540q0 -127 -12.5 -205t-50.5 -147.5t-120 -101.5t-211 -32t-210 32t-119.5 101.5t-51 147.5t-12.5 205zM242 1239l245 248h86l246 -248l-92 -74 l-190 189h-13l-194 -189z" />
<glyph unicode="&#xfc;" horiz-adv-x="1048" d="M131 453v540h123v-538q0 -152 12.5 -216.5t57.5 -105.5q66 -55 200.5 -55t200.5 55q45 41 57.5 105.5t12.5 216.5v538h123v-540q0 -127 -12.5 -205t-50.5 -147.5t-120 -101.5t-211 -32t-210 32t-119.5 101.5t-51 147.5t-12.5 205zM266 1303v10q0 49 28 76.5t68 27.5 q45 0 72 -26.5t27 -77.5v-10q0 -100 -99 -101q-41 0 -68.5 26t-27.5 75zM586 1303v10q0 49 28.5 76.5t69.5 27.5q43 0 70.5 -26.5t27.5 -77.5v-10q0 -49 -27.5 -75t-70.5 -26q-41 0 -69.5 26t-28.5 75z" />
<glyph unicode="&#xfd;" horiz-adv-x="1024" d="M131 393v600h123v-587q0 -150 49 -209q55 -76 176 -76q152 0 285 92v780h123v-921q0 -244 -114 -369t-386 -125q-43 0 -106 8l8 101q61 -6 90 -6q219 0 305 94q80 92 80 260v57q-147 -92 -303 -92q-100 0 -181 47t-118 137q-31 72 -31 209zM338 1210l385 254l80 -121 l-408 -229z" />
<glyph unicode="&#xfe;" horiz-adv-x="1069" d="M137 -389v1790h123v-492q147 117 313 117q176 0 281 -119q119 -131 119 -385v-10q0 -295 -148 -438q-111 -106 -286 -107q-150 0 -279 68v-424h-123zM260 158q115 -74 246 -74q180 0 258 115.5t78 298.5q0 223 -90 323q-74 80 -201 80q-154 0 -291 -125v-618z" />
<glyph unicode="&#xff;" horiz-adv-x="1024" d="M131 393v600h123v-587q0 -150 49 -209q55 -76 176 -76q152 0 285 92v780h123v-921q0 -244 -114 -369t-386 -125q-43 0 -106 8l8 101q61 -6 90 -6q219 0 305 94q80 92 80 260v57q-147 -92 -303 -92q-100 0 -181 47t-118 137q-31 72 -31 209zM252 1303v10q0 49 27.5 76.5 t68.5 27.5q45 0 71.5 -26.5t26.5 -77.5v-10q0 -100 -98 -101q-41 0 -68.5 26t-27.5 75zM571 1303v10q0 49 29 76.5t70 27.5q43 0 70.5 -26.5t27.5 -77.5v-10q0 -49 -27.5 -75t-70.5 -26q-41 0 -70 26t-29 75z" />
<glyph unicode="&#x152;" horiz-adv-x="1699" d="M106 680v20q0 328 126 520.5t397 192.5q154 0 243 -86v53h736l-17 -133h-596v-465h525v-133h-525v-516h600v-133h-727v72q-43 -49 -115.5 -77t-150.5 -28q-254 0 -375 193.5t-121 519.5zM252 692q0 -291 87 -441.5t277 -150.5q158 0 244 103v985q-90 94 -231 94 q-205 0 -291 -147.5t-86 -442.5z" />
<glyph unicode="&#x153;" horiz-adv-x="1767" d="M96 496v2q0 256 108.5 392t325.5 136q272 0 377 -221q102 221 357 221q340 0 397 -373q12 -72 12 -168v-43h-704q23 -360 329 -360q164 0 283 61l21 -108q-135 -68 -308 -68q-211 0 -319 109q-41 41 -72 104q-111 -213 -373 -213q-217 0 -325.5 136.5t-108.5 392.5z M227 496q0 -418 305 -418q303 0 304 397v37q-4 403 -304 403q-305 1 -305 -419zM967 551h573q-16 356 -270 356q-125 0 -197 -76q-92 -92 -106 -280z" />
<glyph unicode="&#x178;" horiz-adv-x="1048" d="M53 1380h150q145 -440 317 -780h6q186 369 320 780h149q-156 -467 -405 -927v-453h-131v455q-250 450 -406 925zM268 1661v10q0 49 28 76t69 27q98 0 98 -103v-10q0 -102 -98 -102q-41 0 -69 26.5t-28 75.5zM588 1661v10q0 49 28.5 76t69.5 27q43 0 70.5 -27t27.5 -76 v-10q0 -49 -27.5 -75.5t-70.5 -26.5q-41 0 -69.5 26.5t-28.5 75.5z" />
<glyph unicode="&#x2c6;" horiz-adv-x="657" d="M41 1239l246 248h86l245 -248l-92 -74l-190 189h-12l-195 -189z" />
<glyph unicode="&#x2dc;" horiz-adv-x="657" d="M23 1286q82 164 192 164q55 0 127 -51l35 -27q49 -31 84 -31q59 0 100 84l74 -67q-57 -143 -180 -144q-59 0 -127 48l-31 22q-51 35 -80 35q-63 0 -113 -102z" />
<glyph unicode="&#x2000;" horiz-adv-x="938" />
<glyph unicode="&#x2001;" horiz-adv-x="1876" />
<glyph unicode="&#x2002;" horiz-adv-x="938" />
<glyph unicode="&#x2003;" horiz-adv-x="1876" />
<glyph unicode="&#x2004;" horiz-adv-x="625" />
<glyph unicode="&#x2005;" horiz-adv-x="469" />
<glyph unicode="&#x2006;" horiz-adv-x="312" />
<glyph unicode="&#x2007;" horiz-adv-x="312" />
<glyph unicode="&#x2008;" horiz-adv-x="234" />
<glyph unicode="&#x2009;" horiz-adv-x="375" />
<glyph unicode="&#x200a;" horiz-adv-x="104" />
<glyph unicode="&#x2010;" horiz-adv-x="575" d="M102 455v120h371v-120h-371z" />
<glyph unicode="&#x2011;" horiz-adv-x="575" d="M102 455v120h371v-120h-371z" />
<glyph unicode="&#x2012;" horiz-adv-x="575" d="M102 455v120h371v-120h-371z" />
<glyph unicode="&#x2013;" horiz-adv-x="1005" d="M6 461v108h993v-108h-993z" />
<glyph unicode="&#x2014;" horiz-adv-x="1998" d="M6 461v108h1987v-108h-1987z" />
<glyph unicode="&#x2018;" horiz-adv-x="380" d="M86 1128q0 150 133 414l88 -37q-61 -131 -94 -235q76 -20 76 -121v-29q0 -115 -101 -114q-102 -1 -102 122z" />
<glyph unicode="&#x2019;" horiz-adv-x="380" d="M74 1008q61 131 94 235q-76 20 -76 121v29q0 115 101 114q102 0 102 -123q0 -150 -133 -413z" />
<glyph unicode="&#x201a;" horiz-adv-x="380" d="M74 -279q61 131 94 236q-76 20 -76 121v28q0 115 101 115q102 0 102 -123q0 -150 -133 -413z" />
<glyph unicode="&#x201c;" horiz-adv-x="745" d="M86 1128q0 150 133 414l88 -37q-61 -131 -94 -235q76 -20 76 -121v-29q0 -115 -101 -114q-102 -1 -102 122zM451 1128q0 150 133 414l88 -37q-61 -131 -94 -235q76 -20 75 -121v-29q0 -115 -100 -114q-102 -1 -102 122z" />
<glyph unicode="&#x201d;" horiz-adv-x="745" d="M74 1008q61 131 94 235q-76 20 -76 121v29q0 115 101 114q102 0 102 -123q0 -150 -133 -413zM438 1008q61 131 94 235q-76 20 -75 121v29q0 115 100 114q102 0 102 -123q0 -150 -133 -413z" />
<glyph unicode="&#x201e;" horiz-adv-x="745" d="M74 -279q61 131 94 236q-76 20 -76 121v28q0 115 101 115q102 0 102 -123q0 -150 -133 -413zM438 -279q61 131 94 236q-76 20 -75 121v28q0 115 100 115q102 0 102 -123q0 -150 -133 -413z" />
<glyph unicode="&#x2022;" horiz-adv-x="706" d="M115 512v31q0 131 55 198.5t188 67.5q131 0 182.5 -66.5t51.5 -199.5v-31q0 -133 -51.5 -199.5t-182.5 -66.5q-133 0 -188 67.5t-55 198.5z" />
<glyph unicode="&#x2026;" horiz-adv-x="1191" d="M104 84v22q0 115 98.5 115t98.5 -115v-22q0 -117 -98.5 -117t-98.5 117zM500 84v22q0 115 96 115q98 0 98 -115v-22q0 -117 -98 -117q-96 0 -96 117zM893 84v22q0 115 96 115q98 0 98 -115v-22q0 -117 -98 -117q-96 0 -96 117z" />
<glyph unicode="&#x202f;" horiz-adv-x="375" />
<glyph unicode="&#x2039;" horiz-adv-x="675" d="M115 498l344 475l98 -64l-299 -411l297 -410l-96 -63z" />
<glyph unicode="&#x203a;" horiz-adv-x="675" d="M119 909l98 64l344 -475l-344 -473l-96 63l297 410z" />
<glyph unicode="&#x205f;" horiz-adv-x="469" />
<glyph unicode="&#x20ac;" d="M16 436l21 125h117q-2 49 -2 137v33h-136l21 121h119q43 561 524 561q180 0 332 -90l-35 -133q-141 86 -297 86q-172 0 -264 -97.5t-113 -326.5h387l-20 -121h-373v-29q0 -92 4 -141h369l-21 -125h-338q29 -186 114 -261t249 -75q168 0 301 80l33 -125q-145 -88 -334 -88 q-236 0 -357.5 113t-152.5 356h-148z" />
<glyph unicode="&#x2122;" horiz-adv-x="1280" d="M45 1358v98h453l-4 -98h-175v-551h-104v551h-170zM563 807q6 211 33 649h104l91 -207l98 -225l180 432h107q23 -307 34 -649h-106q-10 352 -14 459l-164 -387h-80l-162 376q-6 -117 -16 -448h-105z" />
<glyph unicode="&#x25fc;" horiz-adv-x="993" d="M0 0v993h993v-993h-993z" />
</font>
</defs>
</svg>
